<svg width="1440" height="1024" viewBox="0 0 1440 1024" fill="none" xmlns="http://www.w3.org/2000/svg">
<rect width="1440" height="1024" fill="white"/>
<path d="M466.64 463.792V480.931H410.976V463.792H466.64ZM417.494 420.359V527H395.521V420.359H417.494ZM482.313 420.359V527H460.414V420.359H482.313ZM560.316 420.359H582.216V490.818C582.216 499.021 580.458 505.931 576.942 511.546C573.476 517.161 568.666 521.385 562.514 524.217C556.41 527.049 549.379 528.465 541.42 528.465C533.461 528.465 526.381 527.049 520.18 524.217C514.027 521.385 509.193 517.161 505.678 511.546C502.211 505.931 500.478 499.021 500.478 490.818V420.359H522.45V490.818C522.45 495.604 523.207 499.51 524.721 502.537C526.234 505.564 528.407 507.786 531.239 509.202C534.12 510.618 537.514 511.326 541.42 511.326C545.424 511.326 548.817 510.618 551.601 509.202C554.433 507.786 556.581 505.564 558.046 502.537C559.56 499.51 560.316 495.604 560.316 490.818V420.359Z" fill="#FF0F0F"/>
<path d="M684.828 471.263V513.523C683.168 515.525 680.604 517.698 677.138 520.042C673.671 522.337 669.203 524.314 663.734 525.975C658.266 527.635 651.649 528.465 643.886 528.465C637.001 528.465 630.727 527.342 625.062 525.096C619.398 522.801 614.516 519.456 610.414 515.062C606.361 510.667 603.236 505.296 601.039 498.948C598.842 492.552 597.743 485.252 597.743 477.049V470.384C597.743 462.181 598.793 454.881 600.893 448.484C603.041 442.088 606.093 436.692 610.048 432.298C614.003 427.903 618.715 424.559 624.184 422.264C629.652 419.969 635.731 418.821 642.421 418.821C651.698 418.821 659.315 420.335 665.272 423.362C671.229 426.341 675.771 430.491 678.896 435.813C682.069 441.087 684.022 447.142 684.755 453.978H663.441C662.904 450.364 661.879 447.215 660.365 444.529C658.852 441.844 656.679 439.744 653.847 438.23C651.063 436.717 647.45 435.96 643.007 435.96C639.345 435.96 636.073 436.717 633.192 438.23C630.36 439.695 627.968 441.868 626.015 444.749C624.062 447.63 622.572 451.194 621.547 455.442C620.521 459.69 620.009 464.622 620.009 470.237V477.049C620.009 482.615 620.546 487.547 621.62 491.844C622.694 496.092 624.281 499.681 626.381 502.61C628.529 505.491 631.166 507.664 634.291 509.129C637.416 510.594 641.054 511.326 645.204 511.326C648.671 511.326 651.552 511.033 653.847 510.447C656.19 509.861 658.07 509.153 659.486 508.323C660.951 507.444 662.074 506.614 662.855 505.833V486.937H642.787V471.263H684.828ZM771.107 509.861V527H717.421V509.861H771.107ZM724.525 420.359V527H702.553V420.359H724.525ZM828.529 438.597L799.525 527H776.161L815.785 420.359H830.653L828.529 438.597ZM852.626 527L823.549 438.597L821.205 420.359H836.22L876.063 527H852.626ZM851.308 487.303V504.515H794.984V487.303H851.308ZM941.469 499.095C941.469 497.19 941.176 495.481 940.59 493.968C940.053 492.405 939.027 490.989 937.514 489.72C936 488.401 933.876 487.107 931.142 485.838C928.407 484.568 924.867 483.25 920.521 481.883C915.688 480.32 911.098 478.562 906.752 476.609C902.455 474.656 898.646 472.386 895.326 469.798C892.055 467.161 889.467 464.109 887.562 460.643C885.707 457.176 884.779 453.147 884.779 448.558C884.779 444.114 885.756 440.086 887.709 436.473C889.662 432.811 892.396 429.686 895.912 427.098C899.428 424.461 903.578 422.435 908.363 421.019C913.197 419.603 918.495 418.895 924.257 418.895C932.118 418.895 938.979 420.311 944.838 423.143C950.697 425.975 955.238 429.856 958.461 434.788C961.732 439.72 963.368 445.359 963.368 451.707H941.542C941.542 448.582 940.883 445.848 939.564 443.504C938.295 441.111 936.342 439.231 933.705 437.864C931.117 436.497 927.846 435.813 923.891 435.813C920.082 435.813 916.908 436.399 914.369 437.571C911.83 438.694 909.926 440.232 908.656 442.186C907.387 444.09 906.752 446.238 906.752 448.631C906.752 450.438 907.191 452.073 908.07 453.538C908.998 455.003 910.365 456.37 912.172 457.64C913.979 458.909 916.2 460.105 918.837 461.229C921.474 462.352 924.525 463.45 927.992 464.524C933.803 466.282 938.905 468.26 943.3 470.457C947.743 472.654 951.454 475.12 954.433 477.854C957.411 480.589 959.657 483.689 961.171 487.156C962.685 490.623 963.441 494.554 963.441 498.948C963.441 503.587 962.538 507.737 960.731 511.399C958.925 515.062 956.312 518.162 952.895 520.701C949.477 523.24 945.399 525.169 940.663 526.487C935.927 527.806 930.629 528.465 924.77 528.465C919.496 528.465 914.296 527.781 909.169 526.414C904.042 524.998 899.379 522.874 895.18 520.042C891.029 517.21 887.709 513.597 885.219 509.202C882.729 504.808 881.483 499.607 881.483 493.602H903.529C903.529 496.922 904.042 499.729 905.067 502.024C906.093 504.319 907.533 506.175 909.389 507.591C911.293 509.007 913.539 510.032 916.127 510.667C918.764 511.302 921.645 511.619 924.77 511.619C928.578 511.619 931.703 511.082 934.145 510.008C936.635 508.934 938.466 507.444 939.638 505.54C940.858 503.636 941.469 501.487 941.469 499.095ZM1033.9 499.095C1033.9 497.19 1033.61 495.481 1033.02 493.968C1032.48 492.405 1031.46 490.989 1029.95 489.72C1028.43 488.401 1026.31 487.107 1023.57 485.838C1020.84 484.568 1017.3 483.25 1012.95 481.883C1008.12 480.32 1003.53 478.562 999.184 476.609C994.887 474.656 991.078 472.386 987.758 469.798C984.486 467.161 981.898 464.109 979.994 460.643C978.139 457.176 977.211 453.147 977.211 448.558C977.211 444.114 978.188 440.086 980.141 436.473C982.094 432.811 984.828 429.686 988.344 427.098C991.859 424.461 996.01 422.435 1000.79 421.019C1005.63 419.603 1010.93 418.895 1016.69 418.895C1024.55 418.895 1031.41 420.311 1037.27 423.143C1043.13 425.975 1047.67 429.856 1050.89 434.788C1054.16 439.72 1055.8 445.359 1055.8 451.707H1033.97C1033.97 448.582 1033.31 445.848 1032 443.504C1030.73 441.111 1028.77 439.231 1026.14 437.864C1023.55 436.497 1020.28 435.813 1016.32 435.813C1012.51 435.813 1009.34 436.399 1006.8 437.571C1004.26 438.694 1002.36 440.232 1001.09 442.186C999.818 444.09 999.184 446.238 999.184 448.631C999.184 450.438 999.623 452.073 1000.5 453.538C1001.43 455.003 1002.8 456.37 1004.6 457.64C1006.41 458.909 1008.63 460.105 1011.27 461.229C1013.91 462.352 1016.96 463.45 1020.42 464.524C1026.23 466.282 1031.34 468.26 1035.73 470.457C1040.17 472.654 1043.89 475.12 1046.86 477.854C1049.84 480.589 1052.09 483.689 1053.6 487.156C1055.12 490.623 1055.87 494.554 1055.87 498.948C1055.87 503.587 1054.97 507.737 1053.16 511.399C1051.36 515.062 1048.74 518.162 1045.33 520.701C1041.91 523.24 1037.83 525.169 1033.09 526.487C1028.36 527.806 1023.06 528.465 1017.2 528.465C1011.93 528.465 1006.73 527.781 1001.6 526.414C996.474 524.998 991.811 522.874 987.611 520.042C983.461 517.21 980.141 513.597 977.65 509.202C975.16 504.808 973.915 499.607 973.915 493.602H995.961C995.961 496.922 996.474 499.729 997.499 502.024C998.524 504.319 999.965 506.175 1001.82 507.591C1003.72 509.007 1005.97 510.032 1008.56 510.667C1011.2 511.302 1014.08 511.619 1017.2 511.619C1021.01 511.619 1024.13 511.082 1026.58 510.008C1029.07 508.934 1030.9 507.444 1032.07 505.54C1033.29 503.636 1033.9 501.487 1033.9 499.095Z" fill="black"/>
</svg>
