<svg width="325" height="230" viewBox="0 0 325 230" fill="none" xmlns="http://www.w3.org/2000/svg">
<rect width="325" height="230" fill="white"/>
<path d="M129.52 100.723V123.574H55.3008V100.723H129.52ZM63.9922 42.8125V185H34.6953V42.8125H63.9922ZM150.418 42.8125V185H121.219V42.8125H150.418Z" fill="#2a6de9"/>
<path d="M288.602 110.684V167.031C286.388 169.701 282.97 172.598 278.348 175.723C273.725 178.783 267.768 181.419 260.477 183.633C253.185 185.846 244.363 186.953 234.012 186.953C224.832 186.953 216.466 185.456 208.914 182.461C201.362 179.401 194.852 174.941 189.383 169.082C183.979 163.223 179.812 156.061 176.883 147.598C173.953 139.069 172.488 129.336 172.488 118.398V109.512C172.488 98.5742 173.888 88.8411 176.688 80.3125C179.552 71.7839 183.621 64.5898 188.895 58.7305C194.168 52.8711 200.451 48.4115 207.742 45.3516C215.034 42.2917 223.139 40.7617 232.059 40.7617C244.428 40.7617 254.585 42.7799 262.527 46.8164C270.47 50.7878 276.525 56.3216 280.691 63.418C284.923 70.4492 287.527 78.5221 288.504 87.6367H260.086C259.37 82.819 258.003 78.6198 255.984 75.0391C253.966 71.4583 251.069 68.6589 247.293 66.6406C243.582 64.6224 238.764 63.6133 232.84 63.6133C227.957 63.6133 223.595 64.6224 219.754 66.6406C215.978 68.5938 212.788 71.4909 210.184 75.332C207.579 79.1732 205.594 83.9258 204.227 89.5898C202.859 95.2539 202.176 101.829 202.176 109.316V118.398C202.176 125.82 202.892 132.396 204.324 138.125C205.757 143.789 207.872 148.574 210.672 152.48C213.536 156.322 217.052 159.219 221.219 161.172C225.385 163.125 230.236 164.102 235.77 164.102C240.392 164.102 244.233 163.711 247.293 162.93C250.418 162.148 252.924 161.204 254.812 160.098C256.766 158.926 258.263 157.819 259.305 156.777V131.582H232.547V110.684H288.602Z" fill="black"/>
</svg>
