<svg width="128" height="128" viewBox="0 0 128 128" fill="none" xmlns="http://www.w3.org/2000/svg">
<rect width="128" height="128" fill="white"/>
<rect width="128" height="57" fill="black"/>
<path d="M32.5039 27.1445V31.7148H17.6602V27.1445H32.5039ZM19.3984 15.5625V44H13.5391V15.5625H19.3984ZM36.6836 15.5625V44H30.8438V15.5625H36.6836ZM58.2656 34.5664H64.1055C63.9883 36.4805 63.4609 38.1797 62.5234 39.6641C61.599 41.1484 60.3034 42.3073 58.6367 43.1406C56.9831 43.974 54.9909 44.3906 52.6602 44.3906C50.8372 44.3906 49.2031 44.0781 47.7578 43.4531C46.3125 42.8151 45.0755 41.9036 44.0469 40.7188C43.0312 39.5339 42.2565 38.1016 41.7227 36.4219C41.1888 34.7422 40.9219 32.8607 40.9219 30.7773V28.8047C40.9219 26.7214 41.1953 24.8398 41.7422 23.1602C42.3021 21.4674 43.0964 20.0286 44.125 18.8438C45.1667 17.6589 46.4102 16.7474 47.8555 16.1094C49.3008 15.4714 50.9154 15.1523 52.6992 15.1523C55.069 15.1523 57.0677 15.582 58.6953 16.4414C60.3359 17.3008 61.6055 18.4857 62.5039 19.9961C63.4154 21.5065 63.9622 23.2253 64.1445 25.1523H58.2852C58.2201 24.0065 57.9922 23.0365 57.6016 22.2422C57.2109 21.4349 56.6185 20.8294 55.8242 20.4258C55.043 20.0091 54.0013 19.8008 52.6992 19.8008C51.7227 19.8008 50.8698 19.9831 50.1406 20.3477C49.4115 20.7122 48.7995 21.2656 48.3047 22.0078C47.8099 22.75 47.4388 23.6875 47.1914 24.8203C46.957 25.9401 46.8398 27.2552 46.8398 28.7656V30.7773C46.8398 32.2487 46.9505 33.5443 47.1719 34.6641C47.3932 35.7708 47.7318 36.7083 48.1875 37.4766C48.6562 38.2318 49.2552 38.8047 49.9844 39.1953C50.7266 39.5729 51.6185 39.7617 52.6602 39.7617C53.8841 39.7617 54.8932 39.5664 55.6875 39.1758C56.4818 38.7852 57.0872 38.2057 57.5039 37.4375C57.9336 36.6693 58.1875 35.7122 58.2656 34.5664Z" fill="#FFF9F9"/>
<path d="M25.0547 83.3398L25.0449 77.7344H19.957V79.7852H22.3105L22.3008 82.3633C22.2292 82.4479 22.1217 82.5293 21.9785 82.6074C21.8418 82.679 21.6823 82.7441 21.5 82.8027C21.3177 82.8613 21.1224 82.9069 20.9141 82.9395C20.7057 82.972 20.4941 82.9883 20.2793 82.9883C19.9277 82.9818 19.612 82.9264 19.332 82.8223C19.0586 82.7116 18.8177 82.5521 18.6094 82.3438C18.4857 82.2201 18.3717 82.0801 18.2676 81.9238C18.1699 81.7611 18.082 81.5853 18.0039 81.3965C17.8802 81.071 17.7826 80.6966 17.7109 80.2734C17.6458 79.8503 17.6133 79.3815 17.6133 78.8672V76.9141C17.6133 76.5039 17.6361 76.123 17.6816 75.7715C17.7337 75.4199 17.8053 75.1009 17.8965 74.8145C18.0137 74.4434 18.1602 74.1211 18.3359 73.8477C18.5182 73.5742 18.7201 73.3529 18.9414 73.1836C19.1107 73.0599 19.293 72.9655 19.4883 72.9004C19.6836 72.8353 19.8854 72.8027 20.0938 72.8027C20.4779 72.8027 20.8066 72.8548 21.0801 72.959C21.36 73.0566 21.5911 73.2064 21.7734 73.4082C21.9362 73.5905 22.0632 73.8151 22.1543 74.082C22.252 74.349 22.3236 74.6549 22.3691 75H25.0449C24.9733 74.3164 24.8203 73.7012 24.5859 73.1543C24.3581 72.6074 24.0391 72.1419 23.6289 71.7578C23.2188 71.3802 22.7142 71.0905 22.1152 70.8887C21.5228 70.6868 20.8262 70.5859 20.0254 70.5859C19.5046 70.5859 19.0098 70.6576 18.541 70.8008C18.0723 70.944 17.6393 71.1556 17.2422 71.4355C16.9036 71.6829 16.5911 71.9759 16.3047 72.3145C16.0247 72.653 15.7773 73.0339 15.5625 73.457C15.3346 73.9323 15.1589 74.4629 15.0352 75.0488C14.9115 75.6283 14.8496 76.2565 14.8496 76.9336V78.8672C14.8496 79.5768 14.9115 80.2344 15.0352 80.8398C15.1654 81.4453 15.3542 81.9889 15.6016 82.4707C15.8164 82.9069 16.0768 83.2943 16.3828 83.6328C16.6953 83.9714 17.0404 84.2578 17.418 84.4922C17.8021 84.7201 18.222 84.8926 18.6777 85.0098C19.14 85.1335 19.6315 85.1953 20.1523 85.1953C20.7513 85.1953 21.3112 85.14 21.832 85.0293C22.3529 84.9186 22.8249 84.7721 23.248 84.5898C23.6647 84.4141 24.026 84.2155 24.332 83.9941C24.638 83.7728 24.8789 83.5547 25.0547 83.3398ZM30.2305 82.7832V70.7812H27.4766V85H36.8906V82.7832H30.2305ZM46.2949 82.0312L47.125 85H50.0156L45.4453 70.7812H42.9551L38.2969 85H41.1875L42.0273 82.0312H46.2949ZM42.7012 79.6973L44.1953 74.4629L45.6504 79.6973H42.7012ZM58.6973 81.2891C58.6973 81.543 58.6452 81.7773 58.541 81.9922C58.4368 82.2005 58.2871 82.3796 58.0918 82.5293C57.8965 82.679 57.6556 82.7962 57.3691 82.8809C57.0892 82.9655 56.7669 83.0078 56.4023 83.0078C55.9922 83.0078 55.6146 82.9622 55.2695 82.8711C54.931 82.7799 54.6413 82.6367 54.4004 82.4414C54.153 82.2461 53.9609 81.9954 53.8242 81.6895C53.6875 81.3835 53.6126 81.0156 53.5996 80.5859H50.9043C50.9043 81.3216 51.0443 81.9629 51.3242 82.5098C51.6107 83.0566 51.998 83.5319 52.4863 83.9355C53.0007 84.3457 53.6029 84.6582 54.293 84.873C54.9896 85.0814 55.6927 85.1855 56.4023 85.1855C57.125 85.1855 57.7923 85.1009 58.4043 84.9316C59.0163 84.7559 59.5436 84.4987 59.9863 84.1602C60.429 83.8281 60.7741 83.4212 61.0215 82.9395C61.2754 82.4512 61.4023 81.8945 61.4023 81.2695C61.4023 80.5469 61.2363 79.9089 60.9043 79.3555C60.5723 78.8021 60.1263 78.3171 59.5664 77.9004C59.1953 77.6465 58.7884 77.4219 58.3457 77.2266C57.903 77.0312 57.4375 76.8652 56.9492 76.7285C56.4935 76.6048 56.0833 76.4714 55.7188 76.3281C55.3607 76.1849 55.0547 76.0254 54.8008 75.8496C54.5469 75.6803 54.3516 75.4883 54.2148 75.2734C54.0846 75.0586 54.0195 74.8177 54.0195 74.5508C54.0195 74.2969 54.0684 74.0625 54.166 73.8477C54.2702 73.6263 54.4199 73.4342 54.6152 73.2715C54.8105 73.1152 55.0482 72.9948 55.3281 72.9102C55.6146 72.819 55.9401 72.7734 56.3047 72.7734C56.7018 72.7734 57.0469 72.8288 57.3398 72.9395C57.6393 73.0436 57.89 73.1901 58.0918 73.3789C58.2871 73.5742 58.4336 73.8053 58.5312 74.0723C58.6354 74.3392 58.694 74.6322 58.707 74.9512H61.3828C61.3828 74.3132 61.2591 73.7272 61.0117 73.1934C60.7643 72.6595 60.4193 72.1973 59.9766 71.8066C59.5339 71.4225 59.0033 71.123 58.3848 70.9082C57.7728 70.6934 57.0957 70.5859 56.3535 70.5859C55.6374 70.5859 54.9733 70.6803 54.3613 70.8691C53.7493 71.0514 53.2188 71.3151 52.7695 71.6602C52.3203 72.0052 51.9688 72.4219 51.7148 72.9102C51.4609 73.3984 51.334 73.9421 51.334 74.541C51.334 75.0618 51.4284 75.5436 51.6172 75.9863C51.8125 76.429 52.099 76.8327 52.4766 77.1973C52.8542 77.5618 53.3392 77.8971 53.9316 78.2031C54.5306 78.5091 55.224 78.7695 56.0117 78.9844C56.5195 79.1211 56.9427 79.2708 57.2812 79.4336C57.6263 79.5898 57.9062 79.7624 58.1211 79.9512C58.3294 80.1465 58.4759 80.3548 58.5605 80.5762C58.6517 80.7975 58.6973 81.0352 58.6973 81.2891ZM70.709 81.2891C70.709 81.543 70.6569 81.7773 70.5527 81.9922C70.4486 82.2005 70.2988 82.3796 70.1035 82.5293C69.9082 82.679 69.6673 82.7962 69.3809 82.8809C69.1009 82.9655 68.7786 83.0078 68.4141 83.0078C68.0039 83.0078 67.6263 82.9622 67.2812 82.8711C66.9427 82.7799 66.653 82.6367 66.4121 82.4414C66.1647 82.2461 65.9727 81.9954 65.8359 81.6895C65.6992 81.3835 65.6243 81.0156 65.6113 80.5859H62.916C62.916 81.3216 63.056 81.9629 63.3359 82.5098C63.6224 83.0566 64.0098 83.5319 64.498 83.9355C65.0124 84.3457 65.6146 84.6582 66.3047 84.873C67.0013 85.0814 67.7044 85.1855 68.4141 85.1855C69.1367 85.1855 69.804 85.1009 70.416 84.9316C71.028 84.7559 71.5553 84.4987 71.998 84.1602C72.4408 83.8281 72.7858 83.4212 73.0332 82.9395C73.2871 82.4512 73.4141 81.8945 73.4141 81.2695C73.4141 80.5469 73.248 79.9089 72.916 79.3555C72.584 78.8021 72.138 78.3171 71.5781 77.9004C71.207 77.6465 70.8001 77.4219 70.3574 77.2266C69.9147 77.0312 69.4492 76.8652 68.9609 76.7285C68.5052 76.6048 68.0951 76.4714 67.7305 76.3281C67.3724 76.1849 67.0664 76.0254 66.8125 75.8496C66.5586 75.6803 66.3633 75.4883 66.2266 75.2734C66.0964 75.0586 66.0312 74.8177 66.0312 74.5508C66.0312 74.2969 66.0801 74.0625 66.1777 73.8477C66.2819 73.6263 66.4316 73.4342 66.627 73.2715C66.8223 73.1152 67.0599 72.9948 67.3398 72.9102C67.6263 72.819 67.9518 72.7734 68.3164 72.7734C68.7135 72.7734 69.0586 72.8288 69.3516 72.9395C69.651 73.0436 69.9017 73.1901 70.1035 73.3789C70.2988 73.5742 70.4453 73.8053 70.543 74.0723C70.6471 74.3392 70.7057 74.6322 70.7188 74.9512H73.3945C73.3945 74.3132 73.2708 73.7272 73.0234 73.1934C72.776 72.6595 72.431 72.1973 71.9883 71.8066C71.5456 71.4225 71.015 71.123 70.3965 70.9082C69.7845 70.6934 69.1074 70.5859 68.3652 70.5859C67.6491 70.5859 66.985 70.6803 66.373 70.8691C65.7611 71.0514 65.2305 71.3151 64.7812 71.6602C64.332 72.0052 63.9805 72.4219 63.7266 72.9102C63.4727 73.3984 63.3457 73.9421 63.3457 74.541C63.3457 75.0618 63.4401 75.5436 63.6289 75.9863C63.8242 76.429 64.1107 76.8327 64.4883 77.1973C64.8659 77.5618 65.3509 77.8971 65.9434 78.2031C66.5423 78.5091 67.2357 78.7695 68.0234 78.9844C68.5312 79.1211 68.9544 79.2708 69.293 79.4336C69.638 79.5898 69.918 79.7624 70.1328 79.9512C70.3411 80.1465 70.4876 80.3548 70.5723 80.5762C70.6634 80.7975 70.709 81.0352 70.709 81.2891ZM86.8027 81.377C86.8027 81.9368 86.9004 82.4512 87.0957 82.9199C87.291 83.3887 87.5742 83.7923 87.9453 84.1309C88.3099 84.4694 88.7559 84.7331 89.2832 84.9219C89.8105 85.1107 90.403 85.2051 91.0605 85.2051C91.4707 85.2051 91.8516 85.1725 92.2031 85.1074C92.5547 85.0423 92.89 84.9479 93.209 84.8242C93.4108 84.7461 93.6094 84.6549 93.8047 84.5508C94.0065 84.4401 94.2051 84.3197 94.4004 84.1895L95.0352 85H98.1406L96.3047 82.6562C96.8125 82.0443 97.1836 81.3542 97.418 80.5859C97.6589 79.8112 97.7793 78.9779 97.7793 78.0859H95.4551C95.4551 78.5938 95.3965 79.069 95.2793 79.5117C95.1686 79.9544 95.0091 80.3613 94.8008 80.7324L92.3887 77.6367L93.1699 77.002C93.4499 76.8001 93.7103 76.5853 93.9512 76.3574C94.1986 76.1296 94.4134 75.8854 94.5957 75.625C94.778 75.3711 94.9212 75.0977 95.0254 74.8047C95.1296 74.5117 95.1816 74.1992 95.1816 73.8672C95.1816 73.4245 95.1035 73.0046 94.9473 72.6074C94.791 72.2103 94.5729 71.8587 94.293 71.5527C94.0065 71.2533 93.6615 71.0156 93.2578 70.8398C92.8607 70.6641 92.418 70.5762 91.9297 70.5762C91.3503 70.5762 90.8262 70.6641 90.3574 70.8398C89.8887 71.0091 89.4883 71.2533 89.1562 71.5723C88.8242 71.8913 88.5671 72.2786 88.3848 72.7344C88.209 73.1901 88.1211 73.6979 88.1211 74.2578C88.1211 74.5964 88.1602 74.9251 88.2383 75.2441C88.3164 75.5632 88.4303 75.8822 88.5801 76.2012C88.6777 76.4095 88.7884 76.6243 88.9121 76.8457C89.0423 77.0605 89.1823 77.2819 89.332 77.5098L89.1562 77.6367C88.8112 77.8841 88.4987 78.1348 88.2188 78.3887C87.9388 78.6426 87.6979 78.9095 87.4961 79.1895C87.2747 79.502 87.1022 79.8372 86.9785 80.1953C86.8613 80.5534 86.8027 80.9473 86.8027 81.377ZM91.1777 83.0273C90.9303 83.0273 90.7025 82.9818 90.4941 82.8906C90.2923 82.7995 90.1198 82.6725 89.9766 82.5098C89.8333 82.3535 89.7227 82.1647 89.6445 81.9434C89.5664 81.722 89.5273 81.4811 89.5273 81.2207C89.5273 81.084 89.5371 80.9408 89.5566 80.791C89.5827 80.6348 89.6315 80.472 89.7031 80.3027C89.7682 80.1335 89.8691 79.9479 90.0059 79.7461C90.1426 79.5378 90.3021 79.3587 90.4844 79.209L90.543 79.1602L93.1113 82.5C92.9876 82.5716 92.8607 82.6367 92.7305 82.6953C92.6068 82.7474 92.4798 82.7962 92.3496 82.8418C92.1608 82.9004 91.9688 82.946 91.7734 82.9785C91.5781 83.0111 91.3796 83.0273 91.1777 83.0273ZM90.582 74.2578C90.582 74.056 90.6081 73.8672 90.6602 73.6914C90.7188 73.5091 90.8034 73.3496 90.9141 73.2129C91.0247 73.0762 91.1647 72.9688 91.334 72.8906C91.5033 72.8125 91.7018 72.7734 91.9297 72.7734C92.0794 72.7734 92.2129 72.8092 92.3301 72.8809C92.4538 72.9525 92.5579 73.0469 92.6426 73.1641C92.7272 73.2812 92.7923 73.4147 92.8379 73.5645C92.8835 73.7142 92.9062 73.8672 92.9062 74.0234C92.9062 74.082 92.9062 74.1634 92.9062 74.2676C92.9062 74.3652 92.8867 74.4759 92.8477 74.5996C92.8021 74.7298 92.7272 74.8665 92.623 75.0098C92.5189 75.1465 92.3659 75.2799 92.1641 75.4102L91.2559 76.084C91.1712 75.9473 91.0898 75.8138 91.0117 75.6836C90.9401 75.5469 90.8783 75.4134 90.8262 75.2832C90.748 75.1074 90.6862 74.9349 90.6406 74.7656C90.6016 74.5964 90.582 74.4271 90.582 74.2578Z" fill="black"/>
<path d="M20.1777 103.031L21.0078 106H23.8984L19.3281 91.7812H16.8379L12.1797 106H15.0703L15.9102 103.031H20.1777ZM16.584 100.697L18.0781 95.4629L19.5332 100.697H16.584ZM28.1367 103.783V91.7812H25.3828V106H34.7969V103.783H28.1367ZM46.6816 91.7812H43.957L43.9473 101.205C43.9408 101.667 43.8919 102.074 43.8008 102.426C43.7096 102.777 43.5729 103.07 43.3906 103.305C43.2214 103.533 43.0065 103.705 42.7461 103.822C42.4922 103.933 42.1992 103.988 41.8672 103.988C41.5612 103.988 41.291 103.936 41.0566 103.832C40.8223 103.721 40.6237 103.559 40.4609 103.344C40.2852 103.109 40.1517 102.813 40.0605 102.455C39.9759 102.097 39.9303 101.68 39.9238 101.205L39.9141 91.7812H37.1699L37.1602 101.205C37.1602 101.999 37.2708 102.709 37.4922 103.334C37.7201 103.952 38.0391 104.473 38.4492 104.896C38.8594 105.32 39.3509 105.642 39.9238 105.863C40.5033 106.085 41.151 106.195 41.8672 106.195C42.6289 106.195 43.306 106.085 43.8984 105.863C44.4974 105.642 45.0052 105.316 45.4219 104.887C45.832 104.464 46.1445 103.943 46.3594 103.324C46.5807 102.706 46.6914 101.999 46.6914 101.205L46.6816 91.7812ZM52.5898 91.7812H49.1816V106H51.7012V101.791L51.584 95.4043L53.2539 101.312H54.6113L56.4766 95.1406L56.3594 101.791V106H58.8789V91.7812H55.4707L53.9375 97.123L52.5898 91.7812ZM61.8379 91.7812V93.998H64.543V103.793H61.8379V106H70.0605V103.793H67.2871V93.998H70.0605V91.7812H61.8379ZM82.6191 106V91.7812H79.8652L79.8555 100.912L75.9297 91.7812H73.166V106H75.9297V96.8301L79.8848 106H82.6191ZM94.7285 91.7812H92.0039L91.9941 101.205C91.9876 101.667 91.9388 102.074 91.8477 102.426C91.7565 102.777 91.6198 103.07 91.4375 103.305C91.2682 103.533 91.0534 103.705 90.793 103.822C90.5391 103.933 90.2461 103.988 89.9141 103.988C89.6081 103.988 89.3379 103.936 89.1035 103.832C88.8691 103.721 88.6706 103.559 88.5078 103.344C88.332 103.109 88.1986 102.813 88.1074 102.455C88.0228 102.097 87.9772 101.68 87.9707 101.205L87.9609 91.7812H85.2168L85.207 101.205C85.207 101.999 85.3177 102.709 85.5391 103.334C85.7669 103.952 86.0859 104.473 86.4961 104.896C86.9062 105.32 87.3978 105.642 87.9707 105.863C88.5501 106.085 89.1979 106.195 89.9141 106.195C90.6758 106.195 91.3529 106.085 91.9453 105.863C92.5443 105.642 93.0521 105.316 93.4688 104.887C93.8789 104.464 94.1914 103.943 94.4062 103.324C94.6276 102.706 94.7383 101.999 94.7383 101.205L94.7285 91.7812ZM100.637 91.7812H97.2285V106H99.748V101.791L99.6309 95.4043L101.301 101.312H102.658L104.523 95.1406L104.406 101.791V106H106.926V91.7812H103.518L101.984 97.123L100.637 91.7812Z" fill="black"/>
</svg>
