<svg width="919" height="230" viewBox="0 0 919 230" fill="none" xmlns="http://www.w3.org/2000/svg">
<rect width="919" height="230" fill="white"/>
<path d="M107.52 111.723V134.574H33.3008V111.723H107.52ZM41.9922 53.8125V196H12.6953V53.8125H41.9922ZM128.418 53.8125V196H99.2188V53.8125H128.418ZM232.422 53.8125H261.621V147.758C261.621 158.695 259.277 167.908 254.59 175.395C249.967 182.882 243.555 188.513 235.352 192.289C227.214 196.065 217.839 197.953 207.227 197.953C196.615 197.953 187.174 196.065 178.906 192.289C170.703 188.513 164.258 182.882 159.57 175.395C154.948 167.908 152.637 158.695 152.637 147.758V53.8125H181.934V147.758C181.934 154.138 182.943 159.346 184.961 163.383C186.979 167.419 189.876 170.382 193.652 172.27C197.493 174.158 202.018 175.102 207.227 175.102C212.565 175.102 217.09 174.158 220.801 172.27C224.577 170.382 227.441 167.419 229.395 163.383C231.413 159.346 232.422 154.138 232.422 147.758V53.8125Z" fill="#2a6de9"/>
<path d="M398.438 121.684V178.031C396.224 180.701 392.806 183.598 388.184 186.723C383.561 189.783 377.604 192.419 370.312 194.633C363.021 196.846 354.199 197.953 343.848 197.953C334.668 197.953 326.302 196.456 318.75 193.461C311.198 190.401 304.688 185.941 299.219 180.082C293.815 174.223 289.648 167.061 286.719 158.598C283.789 150.069 282.324 140.336 282.324 129.398V120.512C282.324 109.574 283.724 99.8411 286.523 91.3125C289.388 82.7839 293.457 75.5898 298.73 69.7305C304.004 63.8711 310.286 59.4115 317.578 56.3516C324.87 53.2917 332.975 51.7617 341.895 51.7617C354.264 51.7617 364.421 53.7799 372.363 57.8164C380.306 61.7878 386.361 67.3216 390.527 74.418C394.759 81.4492 397.363 89.5221 398.34 98.6367H369.922C369.206 93.819 367.839 89.6198 365.82 86.0391C363.802 82.4583 360.905 79.6589 357.129 77.6406C353.418 75.6224 348.6 74.6133 342.676 74.6133C337.793 74.6133 333.431 75.6224 329.59 77.6406C325.814 79.5938 322.624 82.4909 320.02 86.332C317.415 90.1732 315.43 94.9258 314.062 100.59C312.695 106.254 312.012 112.829 312.012 120.316V129.398C312.012 136.82 312.728 143.396 314.16 149.125C315.592 154.789 317.708 159.574 320.508 163.48C323.372 167.322 326.888 170.219 331.055 172.172C335.221 174.125 340.072 175.102 345.605 175.102C350.228 175.102 354.069 174.711 357.129 173.93C360.254 173.148 362.76 172.204 364.648 171.098C366.602 169.926 368.099 168.819 369.141 167.777V142.582H342.383V121.684H398.438ZM513.477 173.148V196H441.895V173.148H513.477ZM451.367 53.8125V196H422.07V53.8125H451.367ZM590.039 78.1289L551.367 196H520.215L573.047 53.8125H592.871L590.039 78.1289ZM622.168 196L583.398 78.1289L580.273 53.8125H600.293L653.418 196H622.168ZM620.41 143.07V166.02H545.312V143.07H620.41ZM740.625 158.793C740.625 156.254 740.234 153.975 739.453 151.957C738.737 149.874 737.37 147.986 735.352 146.293C733.333 144.535 730.501 142.81 726.855 141.117C723.21 139.424 718.49 137.667 712.695 135.844C706.25 133.76 700.13 131.417 694.336 128.812C688.607 126.208 683.529 123.181 679.102 119.73C674.74 116.215 671.289 112.146 668.75 107.523C666.276 102.901 665.039 97.5299 665.039 91.4102C665.039 85.4857 666.341 80.1146 668.945 75.2969C671.549 70.4141 675.195 66.2474 679.883 62.7969C684.57 59.2812 690.104 56.5794 696.484 54.6914C702.93 52.8034 709.993 51.8594 717.676 51.8594C728.158 51.8594 737.305 53.7474 745.117 57.5234C752.93 61.2995 758.984 66.4753 763.281 73.0508C767.643 79.6263 769.824 87.1458 769.824 95.6094H740.723C740.723 91.4427 739.844 87.7969 738.086 84.6719C736.393 81.4818 733.789 78.9753 730.273 77.1523C726.823 75.3294 722.461 74.418 717.188 74.418C712.109 74.418 707.878 75.1992 704.492 76.7617C701.107 78.2591 698.568 80.3099 696.875 82.9141C695.182 85.4531 694.336 88.3177 694.336 91.5078C694.336 93.9167 694.922 96.0977 696.094 98.0508C697.331 100.004 699.154 101.827 701.562 103.52C703.971 105.212 706.934 106.807 710.449 108.305C713.965 109.802 718.034 111.267 722.656 112.699C730.404 115.043 737.207 117.68 743.066 120.609C748.991 123.539 753.939 126.827 757.91 130.473C761.882 134.118 764.876 138.253 766.895 142.875C768.913 147.497 769.922 152.738 769.922 158.598C769.922 164.783 768.717 170.316 766.309 175.199C763.9 180.082 760.417 184.216 755.859 187.602C751.302 190.987 745.866 193.559 739.551 195.316C733.236 197.074 726.172 197.953 718.359 197.953C711.328 197.953 704.395 197.042 697.559 195.219C690.723 193.331 684.505 190.499 678.906 186.723C673.372 182.947 668.945 178.129 665.625 172.27C662.305 166.41 660.645 159.477 660.645 151.469H690.039C690.039 155.896 690.723 159.639 692.09 162.699C693.457 165.759 695.378 168.233 697.852 170.121C700.391 172.009 703.385 173.376 706.836 174.223C710.352 175.069 714.193 175.492 718.359 175.492C723.438 175.492 727.604 174.776 730.859 173.344C734.18 171.911 736.621 169.926 738.184 167.387C739.811 164.848 740.625 161.983 740.625 158.793ZM863.867 158.793C863.867 156.254 863.477 153.975 862.695 151.957C861.979 149.874 860.612 147.986 858.594 146.293C856.576 144.535 853.743 142.81 850.098 141.117C846.452 139.424 841.732 137.667 835.938 135.844C829.492 133.76 823.372 131.417 817.578 128.812C811.849 126.208 806.771 123.181 802.344 119.73C797.982 116.215 794.531 112.146 791.992 107.523C789.518 102.901 788.281 97.5299 788.281 91.4102C788.281 85.4857 789.583 80.1146 792.188 75.2969C794.792 70.4141 798.438 66.2474 803.125 62.7969C807.812 59.2812 813.346 56.5794 819.727 54.6914C826.172 52.8034 833.236 51.8594 840.918 51.8594C851.4 51.8594 860.547 53.7474 868.359 57.5234C876.172 61.2995 882.227 66.4753 886.523 73.0508C890.885 79.6263 893.066 87.1458 893.066 95.6094H863.965C863.965 91.4427 863.086 87.7969 861.328 84.6719C859.635 81.4818 857.031 78.9753 853.516 77.1523C850.065 75.3294 845.703 74.418 840.43 74.418C835.352 74.418 831.12 75.1992 827.734 76.7617C824.349 78.2591 821.81 80.3099 820.117 82.9141C818.424 85.4531 817.578 88.3177 817.578 91.5078C817.578 93.9167 818.164 96.0977 819.336 98.0508C820.573 100.004 822.396 101.827 824.805 103.52C827.214 105.212 830.176 106.807 833.691 108.305C837.207 109.802 841.276 111.267 845.898 112.699C853.646 115.043 860.449 117.68 866.309 120.609C872.233 123.539 877.181 126.827 881.152 130.473C885.124 134.118 888.118 138.253 890.137 142.875C892.155 147.497 893.164 152.738 893.164 158.598C893.164 164.783 891.96 170.316 889.551 175.199C887.142 180.082 883.659 184.216 879.102 187.602C874.544 190.987 869.108 193.559 862.793 195.316C856.478 197.074 849.414 197.953 841.602 197.953C834.57 197.953 827.637 197.042 820.801 195.219C813.965 193.331 807.747 190.499 802.148 186.723C796.615 182.947 792.188 178.129 788.867 172.27C785.547 166.41 783.887 159.477 783.887 151.469H813.281C813.281 155.896 813.965 159.639 815.332 162.699C816.699 165.759 818.62 168.233 821.094 170.121C823.633 172.009 826.628 173.376 830.078 174.223C833.594 175.069 837.435 175.492 841.602 175.492C846.68 175.492 850.846 174.776 854.102 173.344C857.422 171.911 859.863 169.926 861.426 167.387C863.053 164.848 863.867 161.983 863.867 158.793Z" fill="black"/>
</svg>
